# xmcd
#
# Track frame offsets:
#	183
#	13913
#	24685
#	41148
#	56153
#	73635
#	84470
#	99598
#	113088
#	129870
#
# Disc length: 1935 seconds
#
# Revision: 5
# Processed by: cddbd v1.5.2PL0 Copyright (c) Steve Scherf et al.
# Submitted via: audiograbber 1.83.01
#
DISCID=84078d0a
DTITLE=Various Artist - Swingin' Country Favorites
DYEAR=1987
DGENRE=Oldies
TTITLE0=John Anderson - Swingin'
TTITLE1=Eddie Rabbitt - Two Dollars In The Jukebox
TTITLE2=Vern Gosdin - Break My Mind
TTITLE3=K.D. Lang - Rose Garden
TTITLE4=Southern Pacific and Emmylou Harris  - Thing About You
TTITLE5=Gary Morris - Velvet Chains
TTITLE6=Nitty Gritty Dirt Band - Fishin' In The Dark
TTITLE7=K.T. Oslin - I'll Get You Back
TTITLE8=Tony Joe White - Polk Salad Annie
TTITLE9=Jerry Lee Lewis - Rockin' My Life Away
EXTD=#001452   Copyright 1987
EXTT0=
EXTT1=
EXTT2=
EXTT3=
EXTT4=
EXTT5=
EXTT6=
EXTT7=
EXTT8=
EXTT9=
PLAYORDER=
